<?xml version="1.0" ?>
<!-- Uploaded to: SVG Repo, www.svgrepo.com, Generator: SVG Repo Mixer Tools -->
<svg width="800px" height="800px" viewBox="0 0 512 512" version="1.1" xml:space="preserve" xmlns="http://www.w3.org/2000/svg" xmlns:xlink="http://www.w3.org/1999/xlink">
<style type="text/css">
	.st0{display:none;}
	.st1{fill:#FFE2D2;}
	.st2{fill:#FFDE83;}
	.st3{fill:#F57070;}
	.st4{fill:#DBDBEF;}
	.st5{fill:#BCE2FF;}
	.st6{fill:#48446D;}
	.st7{fill:#6E78FF;}
	.st8{fill:#FFBE83;}
	.st9{fill:#F5949E;}
	.st10{fill:#D0FF67;}
	.st11{fill:#C69C6D;}
	.st12{fill:#C5BDD3;}
	.st13{fill:#FFE2B8;}
	.st14{fill:#F54670;}
</style>
<g class="st0" id="Layer_1"/>
<g id="Layer_2">
<g>
<path class="st3" d="M399.9,137.85c-6.67-15.36-18.21-28.57-32.59-37.27c-2.76-1.67-3.93-4.94-3.07-7.9    c0.04-0.16,0.07-0.33,0.13-0.49c0.06-0.16,0.12-0.31,0.19-0.46c-3.74-1.62-7.57-3.09-11.36-4.37c-0.02-0.01-0.04-0.02-0.06-0.02    c-0.03,0.16-0.06,0.33-0.1,0.49c-0.04,0.16-0.11,0.32-0.16,0.47c-0.91,2.9-3.59,4.9-6.63,4.9c-0.35,0-0.69-0.03-1.04-0.08    l-0.71-0.1c-3.48-0.52-5.97-3.51-5.97-6.92c0-0.34,0.02-0.69,0.07-1.04c0.04-0.24,0.09-0.48,0.15-0.71    c0.04-0.16,0.09-0.32,0.14-0.48c0.05-0.16,0.12-0.32,0.18-0.47c-0.02-0.01-0.05-0.01-0.07-0.02c-2.65-0.59-5.31-1.08-7.91-1.46    c-0.01-0.01-0.03-0.01-0.05-0.01c0,0.17,0,0.33-0.02,0.5c-0.01,0.17-0.04,0.33-0.06,0.5c-0.48,3.34-3.32,5.94-6.81,5.99    c-25.03,0.36-48.15,12.02-63.43,32c-1.3,1.7-3.32,2.71-5.46,2.74c-0.03,0.01-0.07,0.01-0.1,0.01c-2.11,0-4.11-0.96-5.44-2.6    c-15.83-19.54-39.24-30.55-64.3-30.19c-32.37,0.46-61.25,19.94-73.8,49.72l-6.33,36.72c-0.01,0.07-0.02,0.14-0.03,0.21l-1.52,8.78    l2.98,5.17c0.04,0.08,0.08,0.15,0.12,0.23l14.84,25.78c2.07-5.37,5.87-10.09,11.13-13.23l4.58-2.73    c11.51-6.87,26.34-4.05,34.52,6.56c0.26,0.34,0.49,0.7,0.69,1.07l51.23,99.67c0.11,0.21,0.21,0.42,0.29,0.64    c0.59,1.5,0.65,3.18,0.15,4.73l-8.21,25.26c0.43,0.25,0.84,0.49,1.23,0.72c0.94,0.52,1.96,1.07,3.1,1.65    c1.55,0.78,2.92,1.44,4.17,1.98c0.97,0.43,2.01,0.88,3.02,1.27c1.64,0.65,3.25,1.19,4.63,1.65l0.5,0.16    c0.79,0.26,1.58,0.51,2.38,0.74c1.63,0.46,3.31,0.84,5.02,1.22c0.31,0.07,0.67,0.15,1.03,0.23c0.55,0.12,1.1,0.25,1.66,0.35    c1.58,0.28,3.37,0.53,5.59,0.76c0.4,0.05,0.76,0.1,1.12,0.15c0.37,0.05,0.74,0.1,1.12,0.13c2.77,0.23,5.34,0.32,7.81,0.29    c0.03-0.01,0.09-0.01,0.12-0.01c2.39-0.03,4.96-0.2,7.77-0.5c0.33-0.04,0.67-0.1,1.01-0.16c0.4-0.06,0.79-0.13,1.19-0.18    c1.66-0.23,3.63-0.52,5.58-0.93c0.52-0.11,1.07-0.25,1.62-0.39c0.36-0.09,0.72-0.19,1.08-0.27c2.01-0.5,3.53-0.92,4.93-1.35    c0.84-0.27,1.73-0.59,2.63-0.91l0.26-0.09c1.63-0.58,3.09-1.15,4.5-1.74c1.01-0.43,2.03-0.9,3.06-1.39    c1.38-0.66,2.72-1.35,4.04-2.06c0.04-0.03,0.07-0.05,0.11-0.07l-8.61-26.51c-0.57-1.78-0.42-3.71,0.44-5.37l51.23-99.67    c0.2-0.37,0.43-0.73,0.69-1.07c8.18-10.61,23.02-13.43,34.52-6.57l4.58,2.75c1.97,1.17,3.74,2.57,5.29,4.14    c2.58,2.62,4.55,5.72,5.84,9.08l17.94-31.18L399.9,137.85z M186.6,124.86h-0.7c-18.04,0.25-34.11,10.49-41.95,26.71    c-1.2,2.5-3.7,3.95-6.3,3.95c-1.03,0-2.06-0.22-3.04-0.69c-3.48-1.68-4.94-5.87-3.26-9.35c10.15-21.03,30.97-34.29,54.35-34.62    h0.9c3.86,0,7,3.13,7,7C193.6,121.72,190.46,124.86,186.6,124.86z"/>
<path class="st1" d="M371.86,340.84c-1.91,3.36-0.74,7.64,2.62,9.55c0.15,0.09,0.31,0.15,0.47,0.22c0.15,0.08,0.3,0.16,0.45,0.22    c0.16,0.06,0.31,0.11,0.47,0.16l-5.19,13.78h-51.79l-16.94-52.15l49.58-96.44c0.31-0.37,0.65-0.71,0.99-1.03    c3.72-3.5,9.26-4.4,13.91-2.17c0.33,0.17,0.67,0.35,1,0.54l4.58,2.75c5.4,3.22,7.56,9.98,5.02,15.73l-16.53,37.35    c-1.51,3.41-0.09,7.39,3.23,9.08c3.32,1.68,7.38,0.47,9.24-2.75l48.69-84.59c0.81-1.42,1.11-3.07,0.83-4.68l-8.93-51.76    c0,0,0-0.01-0.01-0.01l-0.13-0.78c-0.11-0.63-0.16-1.23-0.16-1.8c0-4.57,2.93-8.56,7.3-9.93c5.39-1.69,11.23,1.3,13.01,6.67    l20.48,61.83c0.78,2.35,0.52,4.93-0.69,7.08L371.86,340.84z"/>
<rect class="st7" height="44.33" width="83.02" x="298.64" y="378.77"/>
<path class="st7" d="M213.36,378.77v44.33h-89.97v-15.17c0.17,0,0.34-0.01,0.5-0.03c0.17-0.01,0.33-0.04,0.5-0.06    c3.37-0.5,5.95-3.39,5.95-6.91v-22.16H213.36z"/>
<path class="st1" d="M210.05,312.62l-16.94,52.15h-51.72l-5.8-11.27c0.17-0.04,0.34-0.06,0.51-0.11c0.16-0.05,0.32-0.11,0.47-0.17    c0.31-0.12,0.61-0.25,0.91-0.42c3.37-1.89,4.57-6.15,2.68-9.53L58.65,197.72c-1.22-2.16-1.48-4.74-0.71-7.08l20.5-61.84    c1.77-5.37,7.61-8.36,13-6.67c4.37,1.37,7.3,5.36,7.3,9.93c0,0.57-0.05,1.17-0.16,1.79l-0.56,3.26c-0.02,0.1-0.04,0.2-0.06,0.31    l-6.5,37.69c-0.01,0.06-0.02,0.13-0.03,0.2l-1.92,11.09c-0.28,1.61,0.02,3.27,0.83,4.69l4.12,7.14c0.04,0.08,0.08,0.15,0.12,0.23    l44.45,77.22c0.12,0.2,0.24,0.39,0.38,0.58c1.98,2.78,5.75,3.75,8.86,2.17c3.32-1.69,4.74-5.67,3.23-9.08l-16.53-37.34    c-2.54-5.76-0.38-12.52,5.02-15.75l4.58-2.73c4.8-2.87,10.82-2.14,14.81,1.53c0.38,0.35,0.75,0.72,1.09,1.12L210.05,312.62z"/>
<path class="st6" d="M371.86,340.84c-1.91,3.36-0.74,7.64,2.62,9.55c0.15,0.09,0.31,0.15,0.47,0.22c0.15,0.08,0.3,0.16,0.45,0.22    c0.16,0.06,0.31,0.11,0.47,0.16c3.08,0.95,6.5-0.31,8.16-3.22l81.5-143.14c3.17-5.59,3.83-12.3,1.81-18.4l-20.48-61.84    c-4.17-12.58-17.85-19.58-30.5-15.61c-4.89,1.53-8.99,4.48-11.97,8.3c-7.74-11.47-17.96-21.29-29.83-28.48    c-3.31-2-7.61-0.94-9.61,2.37c-0.15,0.24-0.28,0.5-0.39,0.76c-0.07,0.15-0.13,0.3-0.19,0.46c-0.06,0.16-0.09,0.33-0.13,0.49    c-0.86,2.96,0.31,6.23,3.07,7.9c14.38,8.7,25.92,21.91,32.59,37.27l8.36,48.44l-17.94,31.18c-1.29-3.36-3.26-6.46-5.84-9.08    c-1.55-1.57-3.32-2.97-5.29-4.14l-4.58-2.75c-11.5-6.86-26.34-4.04-34.52,6.57c-0.26,0.34-0.49,0.7-0.69,1.07l-51.23,99.67    c-0.86,1.66-1.01,3.59-0.44,5.37l8.61,26.51c-0.04,0.02-0.07,0.04-0.11,0.07c-1.32,0.71-2.66,1.4-4.04,2.06    c-1.03,0.49-2.05,0.96-3.06,1.39c-1.41,0.59-2.87,1.16-4.5,1.74l-0.26,0.09c-0.9,0.32-1.79,0.64-2.63,0.91    c-1.4,0.43-2.92,0.85-4.93,1.35c-0.36,0.08-0.72,0.18-1.08,0.27c-0.55,0.14-1.1,0.28-1.62,0.39c-1.95,0.41-3.92,0.7-5.58,0.93    c-0.4,0.05-0.79,0.12-1.19,0.18c-0.34,0.06-0.68,0.12-1.01,0.16c-2.81,0.3-5.38,0.47-7.77,0.5c-0.03,0-0.09,0-0.12,0.01    c-2.47,0.03-5.04-0.06-7.81-0.29c-0.38-0.03-0.75-0.08-1.12-0.13c-0.36-0.05-0.72-0.1-1.12-0.15c-2.22-0.23-4.01-0.48-5.59-0.76    c-0.56-0.1-1.11-0.23-1.66-0.35c-0.36-0.08-0.72-0.16-1.03-0.23c-1.71-0.38-3.39-0.76-5.02-1.22c-0.8-0.23-1.59-0.48-2.38-0.74    l-0.5-0.16c-1.38-0.46-2.99-1-4.63-1.65c-1.01-0.39-2.05-0.84-3.02-1.27c-1.25-0.54-2.62-1.2-4.17-1.98    c-1.14-0.58-2.16-1.13-3.1-1.65c-0.39-0.23-0.8-0.47-1.23-0.72l8.21-25.26c0.5-1.55,0.44-3.23-0.15-4.73    c-0.08-0.22-0.18-0.43-0.29-0.64l-51.23-99.67c-0.2-0.37-0.43-0.73-0.69-1.07c-8.18-10.61-23.01-13.43-34.52-6.56l-4.58,2.73    c-5.26,3.14-9.06,7.86-11.13,13.23l-14.84-25.78c-0.04-0.08-0.08-0.15-0.12-0.23l-2.98-5.17l1.52-8.78    c0.01-0.07,0.02-0.14,0.03-0.21l6.33-36.72c12.55-29.78,41.43-49.26,73.8-49.72c25.06-0.36,48.47,10.65,64.3,30.19    c1.33,1.64,3.33,2.6,5.44,2.6c0.03,0,0.07,0,0.1-0.01c2.14-0.03,4.16-1.04,5.46-2.74c15.28-19.98,38.4-31.64,63.43-32    c3.49-0.05,6.33-2.65,6.81-5.99c0.02-0.17,0.05-0.33,0.06-0.5c0.02-0.17,0.02-0.33,0.02-0.5c0-0.03,0.01-0.07,0.01-0.1    c-0.05-3.84-3.18-6.91-7-6.91c-0.03,0-0.07,0.01-0.1,0.01c-26.53,0.37-51.22,11.57-68.94,31.01    c-18.26-18.93-43.27-29.43-69.79-29.05c-31.25,0.43-59.72,16.02-77.01,41c-3.01-4.2-7.35-7.45-12.57-9.09    c-12.66-3.97-26.33,3.03-30.49,15.61l-20.5,61.85c-2.01,6.09-1.35,12.8,1.8,18.36l81.5,145.51c1.55,2.77,4.69,4.05,7.64,3.39    c0.17-0.04,0.34-0.06,0.51-0.11c0.16-0.05,0.32-0.11,0.47-0.17c0.31-0.12,0.61-0.25,0.91-0.42c3.37-1.89,4.57-6.15,2.68-9.53    L58.65,197.72c-1.22-2.16-1.48-4.74-0.71-7.08l20.5-61.84c1.77-5.37,7.61-8.36,13-6.67c4.37,1.37,7.3,5.36,7.3,9.93    c0,0.57-0.05,1.17-0.16,1.79l-0.56,3.26c-0.02,0.1-0.04,0.2-0.06,0.31l-6.5,37.69c-0.01,0.06-0.02,0.13-0.03,0.2l-1.92,11.09    c-0.28,1.61,0.02,3.27,0.83,4.69l4.12,7.14c0.04,0.08,0.08,0.15,0.12,0.23l44.45,77.22c0.12,0.2,0.24,0.39,0.38,0.58    c1.98,2.78,5.75,3.75,8.86,2.17c3.32-1.69,4.74-5.67,3.23-9.08l-16.53-37.34c-2.54-5.76-0.38-12.52,5.02-15.75l4.58-2.73    c4.8-2.87,10.82-2.14,14.81,1.53c0.38,0.35,0.75,0.72,1.09,1.12l49.58,96.44l-16.94,52.15h-69.77c-3.87,0-7,3.13-7,7v29.16    c0,3.87,3.13,7,7,7h0.05c0.17,0,0.34-0.01,0.5-0.03c0.17-0.01,0.33-0.04,0.5-0.06c3.37-0.5,5.95-3.39,5.95-6.91v-22.16h83.02    v44.33h-90.02c-3.87,0-7,3.13-7,7c0,3.86,3.13,7,7,7h97.02c3.87,0,7-3.14,7-7v-58.33c0-3.87-3.13-7-7-7h-12.53l3.82-11.74    c0.76,0.41,1.55,0.83,2.39,1.26c1.81,0.91,3.41,1.67,4.91,2.33c1.11,0.49,2.31,1,3.52,1.47c1.93,0.77,3.79,1.4,5.4,1.93l0.51,0.16    c0.96,0.31,1.92,0.63,2.89,0.9c2,0.57,3.97,1.01,5.86,1.43c0.31,0.07,0.62,0.14,0.93,0.21c0.74,0.16,1.47,0.32,2.25,0.47    c1.94,0.34,4.03,0.63,6.53,0.9c0.27,0.03,0.54,0.07,0.81,0.1c0.58,0.08,1.16,0.16,1.79,0.21c2.83,0.23,5.46,0.34,7.96,0.34    c0.39,0,0.78,0,1.16-0.01h0.12c2.92-0.04,5.92-0.23,9.19-0.59c0.58-0.06,1.16-0.16,1.74-0.25c0.28-0.05,0.55-0.09,0.83-0.13    c1.9-0.26,4.17-0.6,6.57-1.1c0.73-0.16,1.46-0.34,2.19-0.53c0.31-0.08,0.62-0.16,0.94-0.24c2.31-0.56,4.08-1.05,5.82-1.59    c1.05-0.34,2.09-0.71,3.13-1.08l0.24-0.09c1.86-0.66,3.58-1.32,5.26-2.03c1.23-0.52,2.42-1.07,3.6-1.62    c0.88-0.43,1.72-0.85,2.55-1.27l3.43,10.56h-12.53c-3.87,0-7,3.13-7,7v58.33c0,3.86,3.13,7,7,7h97.02c3.87,0,7-3.14,7-7v-58.33    c0-3.87-3.13-7-7-7h-69.77l-16.94-52.15l49.58-96.44c0.31-0.37,0.65-0.71,0.99-1.03c3.72-3.5,9.26-4.4,13.91-2.17    c0.33,0.17,0.67,0.35,1,0.54l4.58,2.75c5.4,3.22,7.56,9.98,5.02,15.73l-16.53,37.35c-1.51,3.41-0.09,7.39,3.23,9.08    c3.32,1.68,7.38,0.47,9.24-2.75l48.69-84.59c0.81-1.42,1.11-3.07,0.83-4.68l-8.93-51.76c0,0,0-0.01-0.01-0.01l-0.13-0.78    c-0.11-0.63-0.16-1.23-0.16-1.8c0-4.57,2.93-8.56,7.3-9.93c5.39-1.69,11.23,1.3,13.01,6.67l20.48,61.83    c0.78,2.35,0.52,4.93-0.69,7.08L371.86,340.84z M381.66,378.77v44.33h-83.02v-44.33H381.66z"/>
<path class="st6" d="M353.24,86.19c0,0.35-0.03,0.69-0.08,1.04c-0.01,0.04-0.02,0.07-0.02,0.11c-0.03,0.16-0.06,0.33-0.1,0.49    c-0.04,0.16-0.11,0.32-0.16,0.47c-0.91,2.9-3.59,4.9-6.63,4.9c-0.35,0-0.69-0.03-1.04-0.08l-0.71-0.1    c-3.48-0.52-5.97-3.51-5.97-6.92c0-0.34,0.02-0.69,0.07-1.04c0.04-0.24,0.09-0.48,0.15-0.71c0.04-0.16,0.09-0.32,0.14-0.48    c0.05-0.16,0.12-0.32,0.18-0.47c1.21-2.89,4.25-4.71,7.49-4.23l0.71,0.11C350.75,79.79,353.24,82.78,353.24,86.19z"/>
<path class="st6" d="M193.6,117.86c0,3.86-3.14,7-7,7h-0.7c-18.04,0.25-34.11,10.49-41.95,26.71c-1.2,2.5-3.7,3.95-6.3,3.95    c-1.03,0-2.06-0.22-3.04-0.69c-3.48-1.68-4.94-5.87-3.26-9.35c10.15-21.03,30.97-34.29,54.35-34.62h0.9    C190.46,110.86,193.6,113.99,193.6,117.86z"/>
</g>
</g>
</svg>